#N canvas 495 22 450 300 10;
#X obj 139 132 f;
#X obj 139 77 loadbang;
#X obj 169 132 + 1;
#X obj 57 182 expr~ if ($f2 > $f3 \, $v1 \, 0);
#X obj 57 60 inlet~;
#X obj 298 100 inlet;
#X obj 219 108 f \$1;
#X obj 57 234 outlet~;
#X obj 139 106 metro 1;
#X msg 200 151 200;
#X text 233 151 default (ms);
#X connect 0 0 2 0;
#X connect 0 0 3 1;
#X connect 1 0 6 0;
#X connect 1 0 8 0;
#X connect 1 0 9 0;
#X connect 2 0 0 1;
#X connect 3 0 7 0;
#X connect 4 0 3 0;
#X connect 5 0 3 2;
#X connect 6 0 3 2;
#X connect 8 0 0 0;
#X connect 9 0 3 2;
