#N canvas 519 490 450 300 10;
#X obj 82 102 dac~ 27 28 29 30, f 21;
#X obj 82 43 inlet~;
#X obj 123 54 inlet~;
#X obj 164 66 inlet~;
#X obj 205 78 inlet~;
#X connect 1 0 0 0;
#X connect 2 0 0 1;
#X connect 3 0 0 2;
#X connect 4 0 0 3;
