#N canvas 495 22 450 300 10;
#X obj 63 244 print;
#X obj 133 48 loadbang;
#X obj 181 80 inlet;
#X msg 133 75 name;
#X obj 80 117 bela.name \$1;
#X obj 63 50 inlet;
#X connect 1 0 3 0;
#X connect 2 0 4 1;
#X connect 3 0 4 1;
#X connect 4 0 0 0;
#X connect 5 0 4 0;
