#N canvas 638 153 777 446 10;
#X floatatom 71 85 7 0 1 0 - - -, f 7;
#X text 71 42 in;
#X text 122 41 in_min;
#X text 173 41 in_max;
#X text 224 41 out_min;
#X text 277 41 out_max;
#X obj 71 64 inlet;
#X obj 71 362 outlet;
#X obj 173 362 outlet;
#X floatatom 122 85 7 0 1 0 - - -, f 7;
#X obj 122 64 inlet;
#X floatatom 173 85 7 0 1 0 - - -, f 7;
#X obj 173 64 inlet;
#X floatatom 224 85 7 0 1 0 - - -, f 7;
#X obj 224 64 inlet;
#X floatatom 276 85 8 0 1 0 - - -, f 8;
#X obj 276 64 inlet;
#X text 179 341 in_range;
#X text 283 342 out_range;
#X obj 173 186 -;
#X floatatom 235 341 7 0 0 0 - - -, f 7;
#X obj 276 186 -;
#X floatatom 346 343 8 0 0 0 - - -, f 8;
#X obj 71 218 -;
#X floatatom 97 218 10 0 0 0 - - -, f 10;
#X text 164 218 x-in_min;
#X obj 71 241 *;
#X obj 71 262 /;
#X obj 71 286 +;
#X floatatom 98 242 10 0 0 0 - - -, f 10;
#X floatatom 98 263 10 0 0 0 - - -, f 10;
#X floatatom 104 342 9 0 0 0 - - -, f 9;
#X obj 276 363 outlet;
#X text 77 341 out;
#X text 198 186 in_range;
#X text 302 185 out_range;
#X text 164 241 (x-in_min) * out_range;
#X text 164 263 (x-in_min) * out_range / in_range;
#X text 164 285 (x-in_min) * out_range / in_range + out_min;
#X floatatom 98 286 10 0 0 0 - - -, f 10;
#X obj 121 130 t b;
#X obj 92 162 clip \$1 \$2;
#X text 161 161 constrain;
#X obj 338 23 loadbang;
#X obj 338 45 list \$1 \$2 \$3 \$4 \$5;
#X obj 338 66 unpack f f f f f;
#X connect 0 0 23 0;
#X connect 6 0 0 0;
#X connect 9 0 19 1;
#X connect 9 0 23 1;
#X connect 9 0 40 0;
#X connect 9 0 41 1;
#X connect 10 0 9 0;
#X connect 11 0 19 0;
#X connect 11 0 40 0;
#X connect 11 0 41 2;
#X connect 12 0 11 0;
#X connect 13 0 28 1;
#X connect 13 0 40 0;
#X connect 13 0 21 1;
#X connect 14 0 13 0;
#X connect 15 0 21 0;
#X connect 15 0 40 0;
#X connect 16 0 15 0;
#X connect 19 0 20 0;
#X connect 19 0 8 0;
#X connect 19 0 27 1;
#X connect 21 0 22 0;
#X connect 21 0 32 0;
#X connect 21 0 26 1;
#X connect 23 0 26 0;
#X connect 23 0 24 0;
#X connect 26 0 27 0;
#X connect 26 0 29 0;
#X connect 27 0 30 0;
#X connect 27 0 28 0;
#X connect 28 0 31 0;
#X connect 28 0 7 0;
#X connect 28 0 39 0;
#X connect 40 0 0 0;
#X connect 43 0 44 0;
#X connect 44 0 45 0;
#X connect 45 0 0 0;
#X connect 45 1 9 0;
#X connect 45 2 11 0;
#X connect 45 3 13 0;
#X connect 45 4 15 0;
