#N canvas 718 496 450 300 10;
#X obj 40 47 loadbang;
#X obj 40 128 /~;
#X msg 40 103 1;
#X obj 40 150 *~ 1000;
#X obj 105 49 inlet;
#X obj 40 172 outlet~;
#X obj 72 102 mtof;
#X obj 72 77 f \$1;
#X text 105 150 time (ms) = time(s) * 1000;
#X text 105 130 time(s) = 1 / freq(Hz);
#X text 172 51 MIDI note to milliseconds;
#X connect 0 0 7 0;
#X connect 0 0 2 0;
#X connect 1 0 3 0;
#X connect 2 0 1 0;
#X connect 3 0 5 0;
#X connect 4 0 6 0;
#X connect 6 0 1 1;
#X connect 7 0 6 0;
