#N canvas 188 129 721 512 10;
#X obj 249 183 tgl 15 0 empty empty empty 17 7 0 10 -262144 -1 -1 0
1;
#X obj 249 262 sel 1 0, f 8;
#X msg 247 90 1;
#X msg 278 90 0;
#X text 215 181 send:;
#X obj 247 42 bng 15 250 50 0 empty empty empty 17 7 0 10 -262144 -1
-1;
#X obj 203 125 inlet;
#X obj 278 62 bng 15 250 50 0 empty empty empty 17 7 0 10 -262144 -1
-1;
#X text 215 164 sendToBela;
#X text 215 198 receiveOnBela;
#X obj 203 237 outlet;
#X obj 431 316 list trim;
#X obj 431 273 oscformat;
#X obj 431 295 list prepend send;
#X obj 431 426 netsend -u -b;
#X msg 495 383 disconnect;
#X msg 495 338 connect 192.168.7.2 3001;
#X obj 429 160 unpack s 0;
#X obj 478 250 f;
#X msg 431 250 set \$1;
#X obj 431 227 symbol;
#X obj 429 181 t 0 b b s;
#X obj 495 405 print disconnecting from port 3001;
#X obj 429 138 r \$0toBela;
#X obj 495 360 r \$0killNetsendToBela;
#X obj 575 190 r \$0netsendToBela;
#X text 429 108 sendToBela;
#X obj 26 333 netreceive -u -b;
#X obj 26 354 oscparse;
#X obj 26 375 list trim;
#X msg 26 312 listen 3001;
#X obj 26 397 s \$0receiveOnBela;
#X obj 26 291 r \$0belaStarted;
#X text 26 265 receiveOnBela;
#X obj 14 35 r isThisBela;
#X obj 14 56 bng 15 250 50 0 empty empty empty 17 7 0 10 -262144 -1
-1;
#X obj 113 35 r didBelaStop;
#X obj 113 55 bng 15 250 50 0 empty empty empty 17 7 0 10 -262144 -1
-1;
#X msg 113 161 /belaStopped;
#X msg 14 162 /belaStarted;
#X obj 14 140 del 2000;
#X msg 127 98 Stopped;
#X msg 28 97 Started;
#X obj 28 119 print Bela;
#X obj 14 184 s \$0fromBela;
#X obj 113 75 s \$0belaStopped;
#X obj 14 75 s \$0belaStarted;
#X text 14 12 default_libpd_render.cpp to Bela;
#X obj 247 18 r \$0receivedBelaStarted;
#X obj 278 40 r \$0receivedBelaStopped;
#X obj 203 147 s \$0toBela;
#X obj 203 215 r \$0receiveOnBela;
#X obj 271 283 s \$0killNetsendToBela;
#X obj 249 304 s \$0netsendToBela;
#X obj 559 300 loadbang;
#X connect 0 0 1 0;
#X connect 1 0 53 0;
#X connect 1 1 52 0;
#X connect 2 0 0 0;
#X connect 3 0 0 0;
#X connect 5 0 2 0;
#X connect 6 0 50 0;
#X connect 7 0 3 0;
#X connect 11 0 14 0;
#X connect 12 0 13 0;
#X connect 13 0 11 0;
#X connect 15 0 14 0;
#X connect 15 0 22 0;
#X connect 16 0 14 0;
#X connect 17 0 21 0;
#X connect 17 1 18 1;
#X connect 18 0 12 0;
#X connect 19 0 12 0;
#X connect 20 0 19 0;
#X connect 21 0 18 1;
#X connect 21 1 18 0;
#X connect 21 2 20 0;
#X connect 21 3 20 1;
#X connect 23 0 17 0;
#X connect 24 0 15 0;
#X connect 27 0 28 0;
#X connect 28 0 29 0;
#X connect 29 0 31 0;
#X connect 30 0 27 0;
#X connect 32 0 30 0;
#X connect 34 0 35 0;
#X connect 35 0 42 0;
#X connect 35 0 40 0;
#X connect 35 0 46 0;
#X connect 36 0 37 0;
#X connect 37 0 41 0;
#X connect 37 0 38 0;
#X connect 37 0 45 0;
#X connect 38 0 44 0;
#X connect 39 0 44 0;
#X connect 40 0 39 0;
#X connect 41 0 43 0;
#X connect 42 0 43 0;
#X connect 48 0 5 0;
#X connect 49 0 7 0;
#X connect 51 0 10 0;
#X connect 54 0 16 0;
