#N canvas 361 22 717 614 10;
#X obj 367 150 tgl 15 0 empty empty empty 17 7 0 10 -262144 -1 -1 1
1;
#X text 321 148 listen:;
#X obj 385 170 sel 1;
#X obj 244 219 outlet;
#X obj 318 92 inlet;
#X text 306 131 sendFromBela;
#X text 288 165 receiveFromBela;
#X msg 90 460 connect 192.168.7.1 3002;
#X obj 26 438 list trim;
#X obj 26 395 oscformat;
#X obj 26 417 list prepend send;
#X obj 26 547 netsend -u -b;
#X msg 90 504 disconnect;
#X obj 24 276 unpack s 0;
#X obj 76 371 f;
#X msg 26 371 set \$1;
#X obj 26 348 symbol;
#X obj 24 302 t 0 b b s;
#X obj 396 341 netreceive -u -b;
#X obj 396 362 oscparse;
#X obj 396 383 list trim;
#X msg 396 320 listen 3002;
#X obj 396 453 route belaStarted belaStopped;
#X obj 90 526 print disconnecting from port 3002;
#X obj 24 254 r \$0fromBela;
#X obj 90 438 r \$0belaStarted;
#X obj 396 299 r \$0netreceiveFromBela;
#X obj 396 497 s \$0receivedBelaStarted;
#X obj 481 476 s \$0receivedBelaStopped;
#X obj 406 428 s \$0receiveFromBela;
#X obj 90 482 r \$0belaStopped;
#X text 24 230 sendFromBela;
#X text 396 274 receiveFromBela;
#X obj 460 383 r \$0toggleFromBela;
#X obj 19 47 r isThisBela;
#X obj 19 68 bng 15 250 50 0 empty empty empty 17 7 0 10 -262144 -1
-1;
#X obj 118 47 r didBelaStop;
#X obj 118 67 bng 15 250 50 0 empty empty empty 17 7 0 10 -262144 -1
-1;
#X msg 118 173 /belaStopped;
#X msg 19 174 /belaStarted;
#X obj 19 152 del 2000;
#X msg 132 110 Stopped;
#X msg 33 109 Started;
#X obj 33 131 print Bela;
#X obj 19 196 s \$0fromBela;
#X obj 118 87 s \$0belaStopped;
#X obj 19 87 s \$0belaStarted;
#X text 19 24 default_libpd_render.cpp to Bela;
#X obj 318 114 s \$0fromBela;
#X obj 244 197 r \$0receiveFromBela;
#X obj 385 205 s \$0netreceiveFromBela;
#X obj 440 112 loadbang;
#X obj 461 172 print;
#X connect 0 0 2 0;
#X connect 2 0 50 0;
#X connect 2 0 52 0;
#X connect 4 0 48 0;
#X connect 7 0 11 0;
#X connect 8 0 11 0;
#X connect 9 0 10 0;
#X connect 10 0 8 0;
#X connect 12 0 11 0;
#X connect 12 0 23 0;
#X connect 13 0 17 0;
#X connect 13 1 14 1;
#X connect 14 0 9 0;
#X connect 15 0 9 0;
#X connect 16 0 15 0;
#X connect 17 0 14 1;
#X connect 17 1 14 0;
#X connect 17 2 16 0;
#X connect 17 3 16 1;
#X connect 18 0 19 0;
#X connect 19 0 20 0;
#X connect 20 0 22 0;
#X connect 20 0 29 0;
#X connect 21 0 18 0;
#X connect 22 0 27 0;
#X connect 22 1 28 0;
#X connect 24 0 13 0;
#X connect 25 0 7 0;
#X connect 26 0 21 0;
#X connect 30 0 12 0;
#X connect 34 0 35 0;
#X connect 35 0 42 0;
#X connect 35 0 40 0;
#X connect 35 0 46 0;
#X connect 36 0 37 0;
#X connect 37 0 41 0;
#X connect 37 0 38 0;
#X connect 37 0 45 0;
#X connect 38 0 44 0;
#X connect 39 0 44 0;
#X connect 40 0 39 0;
#X connect 41 0 43 0;
#X connect 42 0 43 0;
#X connect 49 0 3 0;
#X connect 51 0 0 0;
