#N canvas 518 253 720 405 10;
#X floatatom 55 89 7 0 1 0 - - -, f 7;
#X text 55 22 in;
#X text 106 21 in_min;
#X text 157 21 in_max;
#X text 208 21 out_min;
#X text 261 21 out_max;
#X obj 157 367 outlet;
#X floatatom 106 90 7 0 1 0 - - -, f 7;
#X floatatom 157 90 7 0 1 0 - - -, f 7;
#X floatatom 208 90 7 0 1 0 - - -, f 7;
#X floatatom 260 90 8 0 1 0 - - -, f 8;
#X obj 260 44 inlet;
#X text 163 346 in_range;
#X text 267 347 out_range;
#X obj 157 191 -;
#X floatatom 219 346 7 0 0 0 - - -, f 7;
#X obj 260 191 -;
#X floatatom 330 348 8 0 0 0 - - -, f 8;
#X floatatom 145 223 10 0 0 0 - - -, f 10;
#X text 212 223 x-in_min;
#X floatatom 146 247 10 0 0 0 - - -, f 10;
#X floatatom 146 268 10 0 0 0 - - -, f 10;
#X floatatom 88 347 9 0 0 0 - - -, f 9;
#X obj 260 368 outlet;
#X text 61 346 out;
#X text 182 191 in_range;
#X text 286 190 out_range;
#X text 212 246 (x-in_min) * out_range;
#X text 212 268 (x-in_min) * out_range / in_range;
#X text 212 290 (x-in_min) * out_range / in_range + out_min;
#X floatatom 146 291 10 0 0 0 - - -, f 10;
#X obj 105 135 t b;
#X obj 76 167 clip \$1 \$2;
#X text 145 166 constrain;
#X obj 322 30 loadbang;
#X obj 322 52 list \$1 \$2 \$3 \$4 \$5;
#X obj 322 73 unpack f f f f f;
#X obj 55 44 inlet~;
#X obj 106 44 inlet;
#X obj 157 44 inlet;
#X obj 208 44 inlet;
#X obj 55 223 -~;
#X obj 55 246 *~;
#X obj 55 267 /~;
#X obj 55 291 +~;
#X obj 55 367 outlet~;
#X obj 472 26 loadbang;
#X floatatom 506 76 5 0 0 0 - - -, f 5;
#X obj 486 103 bng 15 250 50 0 empty empty empty 17 7 0 10 -262144
-1 -1;
#X obj 472 157 s tick;
#X obj 81 202 r tick;
#X obj 472 135 metro \$1;
#X msg 506 54 25;
#X obj 82 223 snapshot~;
#X obj 82 246 snapshot~;
#X obj 82 267 snapshot~;
#X obj 82 290 snapshot~;
#X obj 83 323 snapshot~;
#X obj 55 66 snapshot~;
#X obj 12 66 r tick;
#X connect 0 0 41 0;
#X connect 7 0 14 1;
#X connect 7 0 31 0;
#X connect 7 0 32 1;
#X connect 7 0 41 1;
#X connect 8 0 14 0;
#X connect 8 0 31 0;
#X connect 8 0 32 2;
#X connect 9 0 31 0;
#X connect 9 0 16 1;
#X connect 9 0 44 1;
#X connect 10 0 16 0;
#X connect 10 0 31 0;
#X connect 11 0 10 0;
#X connect 14 0 15 0;
#X connect 14 0 6 0;
#X connect 14 0 43 1;
#X connect 16 0 17 0;
#X connect 16 0 23 0;
#X connect 16 0 42 1;
#X connect 31 0 0 0;
#X connect 34 0 35 0;
#X connect 35 0 36 0;
#X connect 36 1 7 0;
#X connect 36 2 8 0;
#X connect 36 3 9 0;
#X connect 36 4 10 0;
#X connect 37 0 41 0;
#X connect 37 0 58 0;
#X connect 38 0 7 0;
#X connect 39 0 8 0;
#X connect 40 0 9 0;
#X connect 41 0 42 0;
#X connect 41 0 53 0;
#X connect 42 0 43 0;
#X connect 42 0 54 0;
#X connect 43 0 44 0;
#X connect 43 0 55 0;
#X connect 44 0 45 0;
#X connect 44 0 56 0;
#X connect 44 0 57 0;
#X connect 46 0 52 0;
#X connect 46 0 51 0;
#X connect 47 0 48 0;
#X connect 47 0 51 1;
#X connect 48 0 51 0;
#X connect 50 0 53 0;
#X connect 50 0 56 0;
#X connect 50 0 55 0;
#X connect 50 0 54 0;
#X connect 50 0 57 0;
#X connect 51 0 49 0;
#X connect 52 0 47 0;
#X connect 53 0 18 0;
#X connect 54 0 20 0;
#X connect 55 0 21 0;
#X connect 56 0 30 0;
#X connect 57 0 22 0;
#X connect 58 0 0 0;
#X connect 59 0 58 0;
