#N canvas 850 0 590 491 10;
#X obj 98 178 adc~ 2;
#X obj 148 224 loadbang;
#X obj 148 246 metro 1000;
#X obj 148 268 snapshot~;
#X obj 127 59 hsl 128 15 10 500 0 0 empty empty empty -2 -8 0 10 -262144
-1 -1 6100 1;
#X floatatom 127 81 5 0 0 0 - - -, f 5;
#X obj 137 202 r lopSlider;
#X obj 44 465 s lopSlider;
#X obj 98 246 lop~ 10;
#X obj 227 231 osc~ 440;
#X obj 148 313 s sendFromBela;
#X obj 312 396 r sendFromBela;
#X obj 127 128 s sendToBela;
#X obj 44 398 r sendToBela;
#X obj 312 442 route adc2;
#X obj 312 465 print adc2;
#X obj 127 105 bela.name lopSlider;
#X obj 148 290 bela.name adc2;
#X obj 44 420 bela.send;
#X obj 227 254 bela.scope;
#X obj 312 418 bela.receive;
#X obj 325 60 hsl 128 15 125 1500 0 0 empty empty empty -2 -8 0 10
-262144 -1 -1 1000 1;
#X floatatom 325 81 5 0 0 0 - - -, f 5;
#X obj 325 126 s sendToBela;
#X obj 325 103 bela.name metroSlider;
#X obj 44 443 route lopSlider metroSlider;
#X obj 123 465 s metroSlider;
#X obj 214 201 r metroSlider;
#X text 44 369 send the slider values to Bela;
#X text 244 291 send a snapshot of adc2 from Bela;
#X text 297 254 visualise in scope channel 1;
#X text 143 178 control lop~ and metro live on Bela using the sliders
;
#X text 155 29 create some sliders to control the patch on Bela;
#X text 311 370 locally print the adc2 snapshot from Bela;
#X obj 6 442 print;
#X connect 0 0 8 0;
#X connect 1 0 2 0;
#X connect 2 0 3 0;
#X connect 3 0 17 0;
#X connect 4 0 5 0;
#X connect 5 0 16 0;
#X connect 6 0 8 1;
#X connect 6 0 9 0;
#X connect 8 0 3 0;
#X connect 9 0 19 0;
#X connect 11 0 20 0;
#X connect 13 0 18 0;
#X connect 14 0 15 0;
#X connect 16 0 12 0;
#X connect 17 0 10 0;
#X connect 18 0 25 0;
#X connect 18 0 34 0;
#X connect 20 0 14 0;
#X connect 21 0 22 0;
#X connect 22 0 24 0;
#X connect 24 0 23 0;
#X connect 25 0 7 0;
#X connect 25 1 26 0;
#X connect 27 0 2 1;
