#N canvas 495 175 450 300 10;
#X obj 61 64 inlet~;
#X obj 61 141 snapshot~;
#X obj 61 258 print;
#X obj 138 55 loadbang;
#X obj 198 50 inlet;
#X text 199 93 print interval (ms);
#X msg 152 78 500;
#X obj 394 46 inlet;
#X msg 346 94 name;
#X obj 138 114 metro \$1;
#X obj 322 130 bela.name \$2;
#X obj 131 260 outlet;
#X connect 0 0 1 0;
#X connect 1 0 10 0;
#X connect 1 0 11 0;
#X connect 3 0 6 0;
#X connect 3 0 8 0;
#X connect 3 0 9 0;
#X connect 4 0 9 1;
#X connect 6 0 9 1;
#X connect 7 0 10 1;
#X connect 8 0 10 1;
#X connect 9 0 1 0;
#X connect 10 0 2 0;
