#N canvas 81 333 450 300 10;
#X obj 121 163 r~ s1;
#X obj 87 128 bela.mtoms 60;
#X obj 121 212 bela.decay~ 0.99;
#X obj 121 187 bela.damp~ 10000;
#X obj 58 248 bela.delay~;
#X obj 58 64 bela.input~ 50 0.05 7.5;
#X obj 118 30 inlet;
#X obj 58 31 inlet~;
#X obj 58 277 outlet~;
#X connect 0 0 3 0;
#X connect 1 0 4 1;
#X connect 2 0 4 2;
#X connect 3 0 2 0;
#X connect 4 0 8 0;
#X connect 5 0 4 0;
#X connect 6 0 1 0;
#X connect 7 0 5 0;
