#N canvas 310 442 450 300 10;
#X obj 28 126 outlet~;
#X obj 115 23 inlet;
#X obj 28 24 inlet~;
#X obj 28 45 phasor~;
#X obj 28 86 -~ 0.5;
#X obj 28 106 *~ 2;
#X obj 28 66 expr~ $v1 > $v2;
#X text 166 23 square wave between -1 and 1 (like [osc~]);
#X text 165 46 with pulse width parameter;
#X connect 1 0 6 1;
#X connect 2 0 3 0;
#X connect 3 0 6 0;
#X connect 4 0 5 0;
#X connect 5 0 0 0;
#X connect 6 0 4 0;
