#N canvas 631 271 450 300 10;
#X floatatom 17 53 5 0 0 0 - - -, f 5;
#X floatatom 150 52 5 0 0 0 - - -, f 5;
#X obj 95 174 oscformat ctrl;
#X obj 95 196 list prepend send;
#X obj 95 218 list trim;
#X obj 95 240 netsend -u -b;
#X obj 95 152 pack 1 2;
#X text 54 30 control number;
#X obj 278 52 / 127;
#X msg 229 149 format if;
#X obj 227 195 loadbang;
#X obj 95 116 bng 15 250 50 0 empty empty empty 17 7 0 10 -262144 -1
-1;
#X obj 17 30 inlet;
#X obj 150 30 inlet;
#X obj 278 30 inlet;
#X obj 8 194 outlet;
#X obj 18 77 loadbang;
#X obj 18 99 f \$1;
#X text 188 30 control value;
#X text 316 30 control value (MIDI);
#X floatatom 278 74 5 0 0 0 - - -, f 5;
#X obj 229 129 loadbang;
#X text 9 216 (print);
#X msg 227 214 connect 192.168.7.1 6010;
#X connect 0 0 6 0;
#X connect 1 0 6 1;
#X connect 1 0 11 0;
#X connect 2 0 3 0;
#X connect 3 0 4 0;
#X connect 4 0 5 0;
#X connect 6 0 2 0;
#X connect 6 0 15 0;
#X connect 8 0 20 0;
#X connect 9 0 2 0;
#X connect 10 0 23 0;
#X connect 11 0 6 0;
#X connect 12 0 0 0;
#X connect 13 0 1 0;
#X connect 14 0 8 0;
#X connect 16 0 17 0;
#X connect 17 0 6 0;
#X connect 20 0 6 1;
#X connect 20 0 11 0;
#X connect 21 0 9 0;
#X connect 23 0 5 0;
