#N canvas 419 129 973 656 10;
#X obj 33 458 netreceive -u -b;
#X obj 33 479 oscparse;
#X obj 33 500 list trim;
#X obj 222 39 r isThisBela;
#X msg 741 255 connect 192.168.7.1 3002;
#X obj 677 233 list trim;
#X obj 677 190 oscformat;
#X obj 677 212 list prepend send;
#X obj 677 342 netsend -u -b;
#X msg 741 299 disconnect;
#X obj 222 60 bng 15 250 50 0 empty empty empty 17 7 0 10 -262144 -1
-1;
#X msg 33 437 listen 3001;
#X obj 321 39 r didBelaStop;
#X obj 321 59 bng 15 250 50 0 empty empty empty 17 7 0 10 -262144 -1
-1;
#X obj 321 338 tgl 11 0 empty empty empty 12 12 0 10 -262144 -1 -1
1 1;
#X obj 675 71 unpack s 0;
#X obj 727 166 f;
#X msg 677 166 set \$1;
#X obj 677 143 symbol;
#X obj 675 97 t 0 b b s;
#X msg 321 165 /belaStopped;
#X msg 222 166 /belaStarted;
#X obj 677 456 netreceive -u -b;
#X obj 677 477 oscparse;
#X obj 677 498 list trim;
#X msg 677 435 listen 3002;
#X obj 33 234 list trim;
#X obj 33 191 oscformat;
#X obj 33 213 list prepend send;
#X obj 33 344 netsend -u -b;
#X msg 97 301 disconnect;
#X msg 97 256 connect 192.168.7.2 3001;
#X obj 31 78 unpack s 0;
#X obj 80 168 f;
#X msg 33 168 set \$1;
#X obj 33 145 symbol;
#X obj 31 99 t 0 b b s;
#X obj 321 427 sel 1 0, f 8;
#X msg 321 251 1;
#X msg 352 273 0;
#X obj 97 323 print disconnecting from port 3001;
#X obj 406 338 tgl 11 0 empty empty empty 15 15 0 10 -262144 -1 -1
0 1;
#X obj 321 232 bng 15 250 50 0 empty empty empty 17 7 0 10 -262144
-1 -1;
#X obj 222 144 del 2000;
#X obj 677 568 route belaStarted belaStopped;
#X obj 321 296 inlet;
#X obj 413 384 outlet;
#X obj 352 253 bng 15 250 50 0 empty empty empty 17 7 0 10 -262144
-1 -1;
#X msg 335 102 Stopped;
#X msg 236 101 Started;
#X obj 236 123 print Bela;
#X obj 406 296 inlet;
#X obj 741 321 print disconnecting from port 3002;
#X obj 277 374 outlet;
#X obj 222 188 s \$0fromBela;
#X obj 321 318 s \$0toBela;
#X obj 406 318 s \$0fromBela;
#X obj 321 212 r \$0receivedBelaStarted;
#X obj 352 232 r \$0receivedBelaStopped;
#X obj 321 79 s \$0belaStopped;
#X obj 222 79 s \$0belaStarted;
#X obj 675 49 r \$0fromBela;
#X obj 741 233 r \$0belaStarted;
#X obj 321 469 s \$0netsendToBela;
#X obj 343 448 s \$0killNetsendToBela;
#X obj 406 427 s \$0netreceiveFromBela;
#X obj 31 56 r \$0toBela;
#X obj 677 414 r \$0netreceiveFromBela;
#X obj 677 612 s \$0receivedBelaStarted;
#X obj 762 591 s \$0receivedBelaStopped;
#X obj 687 543 s \$0receiveFromBela;
#X obj 97 278 r \$0killNetsendToBela;
#X obj 97 234 r \$0netsendToBela;
#X obj 33 522 s \$0receiveOnBela;
#X obj 33 416 r \$0belaStarted;
#X obj 741 277 r \$0belaStopped;
#X obj 277 352 r \$0receiveOnBela;
#X obj 413 362 r \$0receiveFromBela;
#X text 31 26 sendToBela;
#X text 33 390 receiveOnBela;
#X text 675 25 sendFromBela;
#X text 677 389 receiveFromBela;
#X text 222 16 default_libpd_render.cpp to Bela;
#X text 331 335 to BELA from;
#X obj 687 520 spigot;
#X obj 406 406 sel 1;
#X obj 425 340 s \$0toggleFromBela;
#X obj 741 498 r \$0toggleFromBela;
#X connect 0 0 1 0;
#X connect 1 0 2 0;
#X connect 2 0 73 0;
#X connect 3 0 10 0;
#X connect 4 0 8 0;
#X connect 5 0 8 0;
#X connect 6 0 7 0;
#X connect 7 0 5 0;
#X connect 9 0 8 0;
#X connect 9 0 52 0;
#X connect 10 0 49 0;
#X connect 10 0 43 0;
#X connect 10 0 60 0;
#X connect 11 0 0 0;
#X connect 12 0 13 0;
#X connect 13 0 48 0;
#X connect 13 0 20 0;
#X connect 13 0 59 0;
#X connect 14 0 37 0;
#X connect 15 0 19 0;
#X connect 15 1 16 1;
#X connect 16 0 6 0;
#X connect 17 0 6 0;
#X connect 18 0 17 0;
#X connect 19 0 16 1;
#X connect 19 1 16 0;
#X connect 19 2 18 0;
#X connect 19 3 18 1;
#X connect 20 0 54 0;
#X connect 21 0 54 0;
#X connect 22 0 23 0;
#X connect 23 0 24 0;
#X connect 24 0 44 0;
#X connect 24 0 84 0;
#X connect 25 0 22 0;
#X connect 26 0 29 0;
#X connect 27 0 28 0;
#X connect 28 0 26 0;
#X connect 30 0 29 0;
#X connect 30 0 40 0;
#X connect 31 0 29 0;
#X connect 32 0 36 0;
#X connect 32 1 33 1;
#X connect 33 0 27 0;
#X connect 34 0 27 0;
#X connect 35 0 34 0;
#X connect 36 0 33 1;
#X connect 36 1 33 0;
#X connect 36 2 35 0;
#X connect 36 3 35 1;
#X connect 37 0 63 0;
#X connect 37 1 64 0;
#X connect 38 0 14 0;
#X connect 38 0 41 0;
#X connect 39 0 14 0;
#X connect 39 0 41 0;
#X connect 41 0 85 0;
#X connect 41 0 86 0;
#X connect 42 0 38 0;
#X connect 43 0 21 0;
#X connect 44 0 68 0;
#X connect 44 1 69 0;
#X connect 45 0 55 0;
#X connect 47 0 39 0;
#X connect 48 0 50 0;
#X connect 49 0 50 0;
#X connect 51 0 56 0;
#X connect 57 0 42 0;
#X connect 58 0 47 0;
#X connect 61 0 15 0;
#X connect 62 0 4 0;
#X connect 66 0 32 0;
#X connect 67 0 25 0;
#X connect 71 0 30 0;
#X connect 72 0 31 0;
#X connect 74 0 11 0;
#X connect 75 0 9 0;
#X connect 76 0 53 0;
#X connect 77 0 46 0;
#X connect 84 0 70 0;
#X connect 85 0 65 0;
#X connect 87 0 84 1;
#X coords 0 -1 1 1 96 17 2 321 335;
