#N canvas 662 18 720 578 10;
#X obj 65 162 adc~ 2;
#X obj 115 208 loadbang;
#X obj 115 230 metro 1000;
#X obj 115 252 snapshot~;
#X obj 20 25 hsl 128 15 10 500 0 0 empty empty empty -2 -8 0 10 -262144
-1 -1 0 1;
#X floatatom 20 47 5 0 0 0 - - -, f 5;
#X obj 104 186 r lopSlider;
#X obj 27 419 s lopSlider;
#X obj 65 230 lop~ 10;
#X obj 194 215 osc~ 440;
#X obj 115 297 s sendFromBela;
#X obj 212 350 r sendFromBela;
#X obj 20 94 s sendToBela;
#X obj 27 352 r sendToBela;
#X obj 212 396 route adc2;
#X obj 212 419 print adc2;
#X obj 20 71 bela.name lopSlider;
#X obj 115 274 bela.name adc2;
#X obj 27 374 bela.send;
#X obj 194 238 bela.scope;
#X obj 212 372 bela.receive;
#X obj 160 24 hsl 128 15 500 1500 0 0 empty empty empty -2 -8 0 10
-262144 -1 -1 0 1;
#X floatatom 160 45 5 0 0 0 - - -, f 5;
#X obj 160 90 s sendToBela;
#X obj 160 67 bela.name metroSlider;
#X obj 27 397 route lopSlider metroSlider;
#X obj 106 419 s metroSlider;
#X obj 181 185 r metroSlider;
#X connect 0 0 8 0;
#X connect 1 0 2 0;
#X connect 2 0 3 0;
#X connect 3 0 17 0;
#X connect 4 0 5 0;
#X connect 5 0 16 0;
#X connect 6 0 8 1;
#X connect 6 0 9 0;
#X connect 8 0 3 0;
#X connect 9 0 19 0;
#X connect 11 0 20 0;
#X connect 13 0 18 0;
#X connect 14 0 15 0;
#X connect 16 0 12 0;
#X connect 17 0 10 0;
#X connect 18 0 25 0;
#X connect 20 0 14 0;
#X connect 21 0 22 0;
#X connect 22 0 24 0;
#X connect 24 0 23 0;
#X connect 25 0 7 0;
#X connect 25 1 26 0;
#X connect 27 0 2 1;
